<svg width="35" height="35" viewBox="0 0 35 35" fill="none" xmlns="http://www.w3.org/2000/svg">
<g clip-path="url(#clip0_278_369)">
<rect x="2.39999" y="4.7998" width="29.6" height="27.2" fill="#FAFAFA"/>
<path d="M0.799988 2.4639C0.799988 1.10295 1.90459 0 3.26749 0H31.9325C33.2954 0 34.4 1.10295 34.4 2.4639V31.9361C34.4 33.2971 33.2954 34.4 31.9325 34.4H3.26749C1.90459 34.4 0.799988 33.2971 0.799988 31.9361V2.4639ZM11.1803 28.7971V13.2634H6.13819V28.7971H11.1803ZM8.66029 11.1413C10.418 11.1413 11.5121 9.9502 11.5121 8.4581C11.4806 6.93375 10.4201 5.7749 8.69389 5.7749C6.96769 5.7749 5.83999 6.9359 5.83999 8.4581C5.83999 9.9502 6.93409 11.1413 8.62669 11.1413H8.66029ZM18.9671 28.7971V20.1219C18.9671 19.6575 19.0007 19.1931 19.1351 18.8619C19.4984 17.9353 20.3279 16.9743 21.7223 16.9743C23.5472 16.9743 24.2759 18.3976 24.2759 20.4874V28.7971H29.318V19.8875C29.318 15.1145 26.8316 12.8957 23.5136 12.8957C20.8382 12.8957 19.6391 14.4007 18.9671 15.4607V15.5144H18.9335L18.9671 15.4607V13.2634H13.9271C13.9901 14.7211 13.9271 28.7971 13.9271 28.7971H18.9671Z" fill="black"/>
</g>
<defs>
<clipPath id="clip0_278_369">
<rect width="33.6" height="34.4" fill="white" transform="translate(0.799988)"/>
</clipPath>
</defs>
</svg>
