<svg width="36" height="29" viewBox="0 0 36 29" fill="none" xmlns="http://www.w3.org/2000/svg">
<g clip-path="url(#clip0_278_372)">
<rect x="3.20001" y="3.2002" width="29.6" height="18.4" fill="#FAFAFA"/>
<path d="M4.07995 28.6806C3.12295 28.6806 2.30399 28.3411 1.62307 27.6621C0.942145 26.9832 0.601105 26.1659 0.599945 25.2105V4.39001C0.599945 3.43573 0.940985 2.61911 1.62307 1.94013C2.30515 1.26115 3.12411 0.921079 4.07995 0.919922H31.9199C32.8769 0.919922 33.6965 1.25999 34.3786 1.94013C35.0606 2.62026 35.4011 3.43689 35.3999 4.39001V25.2105C35.3999 26.1648 35.0595 26.982 34.3786 27.6621C33.6976 28.3423 32.8781 28.6818 31.9199 28.6806H4.07995ZM17.9999 16.5353L31.9199 7.86009V4.39001L17.9999 13.0652L4.07995 4.39001V7.86009L17.9999 16.5353Z" fill="black"/>
</g>
<defs>
<clipPath id="clip0_278_372">
<rect width="36" height="28" fill="white" transform="translate(0 0.799805)"/>
</clipPath>
</defs>
</svg>
