<svg width="101" height="23" viewBox="0 0 101 23" fill="none" xmlns="http://www.w3.org/2000/svg">
<path d="M65.16 7.84H61.352V6.56H70.408V7.84H66.6V18H65.16V7.84ZM73.352 17.104C74.0773 17.104 74.632 16.9333 75.016 16.592C75.4 16.2507 75.64 15.8827 75.736 15.488H77.016C76.792 16.2987 76.3707 16.96 75.752 17.472C75.144 17.9733 74.36 18.224 73.4 18.224C72.5893 18.224 71.88 18.048 71.272 17.696C70.6747 17.3333 70.216 16.8267 69.896 16.176C69.576 15.5253 69.416 14.7733 69.416 13.92C69.416 12.576 69.768 11.5253 70.472 10.768C71.176 10 72.1307 9.616 73.336 9.616C74.5947 9.616 75.544 10.0213 76.184 10.832C76.824 11.6427 77.144 12.784 77.144 14.256H70.696C70.696 14.768 70.7973 15.2427 71 15.68C71.2027 16.1067 71.5013 16.4533 71.896 16.72C72.3013 16.976 72.7867 17.104 73.352 17.104ZM73.336 10.736C72.8347 10.736 72.3813 10.8427 71.976 11.056C71.5813 11.2693 71.2667 11.5627 71.032 11.936C70.808 12.2987 70.696 12.6987 70.696 13.136H75.864C75.864 12.6987 75.7573 12.2987 75.544 11.936C75.3413 11.5627 75.048 11.2693 74.664 11.056C74.28 10.8427 73.8373 10.736 73.336 10.736ZM81.9793 9.616C82.2566 9.616 82.5073 9.632 82.7313 9.664V10.944H82.6993C82.5286 10.912 82.3633 10.896 82.2033 10.896C81.4566 10.896 80.8486 11.1573 80.3793 11.68C79.9206 12.2027 79.6913 12.8587 79.6913 13.648V18H78.4113V9.84H79.6913V11.456H79.7233C79.9579 10.8693 80.2513 10.416 80.6033 10.096C80.9659 9.776 81.4246 9.616 81.9793 9.616ZM90.5836 9.84V18H89.3036V17.024H89.2716C89.0156 17.3653 88.6636 17.6533 88.2156 17.888C87.7676 18.112 87.2236 18.224 86.5836 18.224C85.7836 18.224 85.1276 18 84.6156 17.552C84.1036 17.0933 83.8476 16.4213 83.8476 15.536V9.84H85.1276V15.216C85.1276 15.7813 85.2716 16.24 85.5596 16.592C85.8476 16.9333 86.2956 17.104 86.9036 17.104C87.6183 17.104 88.1943 16.9013 88.6316 16.496C89.0796 16.0907 89.3036 15.568 89.3036 14.928V9.84H90.5836ZM99.4368 9.84V17.552C99.4368 18.6187 99.1168 19.4293 98.4768 19.984C97.8474 20.5493 96.9621 20.832 95.8208 20.832C95.0954 20.832 94.4608 20.7147 93.9168 20.48C93.3728 20.256 92.9461 19.9467 92.6368 19.552C92.3381 19.1573 92.1674 18.7253 92.1248 18.256H93.4048C93.4901 18.704 93.7194 19.056 94.0928 19.312C94.4768 19.5787 95.0314 19.712 95.7568 19.712C97.3568 19.712 98.1568 18.9867 98.1568 17.536V16.304H98.1248C97.5381 17.1573 96.6741 17.584 95.5328 17.584C94.8394 17.584 94.2154 17.4347 93.6608 17.136C93.1168 16.8373 92.6848 16.3893 92.3648 15.792C92.0448 15.1947 91.8848 14.464 91.8848 13.6C91.8848 12.736 92.0448 12.0053 92.3648 11.408C92.6848 10.8107 93.1168 10.3627 93.6608 10.064C94.2154 9.76533 94.8394 9.616 95.5328 9.616C96.6314 9.616 97.4954 10.0267 98.1248 10.848H98.1568V9.84H99.4368ZM95.6927 16.464C96.4714 16.464 97.0741 16.224 97.5008 15.744C97.9381 15.2533 98.1568 14.5387 98.1568 13.6C98.1568 12.6613 97.9381 11.952 97.5008 11.472C97.0741 10.9813 96.4714 10.736 95.6927 10.736C94.8821 10.736 94.2581 11.0027 93.8207 11.536C93.3834 12.0693 93.1648 12.7573 93.1648 13.6C93.1648 14.4427 93.3834 15.1307 93.8207 15.664C94.2581 16.1973 94.8821 16.464 95.6927 16.464Z" fill="black"/>
<path d="M45 11.5H1.3197M11.5879 22L1 11.5L11.5879 1" stroke="black" stroke-width="1.5" stroke-linecap="round" stroke-linejoin="round"/>
</svg>
